<?xml version="1.0" encoding="utf-8"?>
<!-- Generator: Adobe Illustrator 16.0.4, SVG Export Plug-In . SVG Version: 6.00 Build 0)  -->
<!DOCTYPE svg PUBLIC "-//W3C//DTD SVG 1.1//EN" "http://www.w3.org/Graphics/SVG/1.1/DTD/svg11.dtd">
<svg version="1.1" id="Layer_1" xmlns="http://www.w3.org/2000/svg" xmlns:xlink="http://www.w3.org/1999/xlink" x="0px" y="0px"
	 width="160px" height="160px" viewBox="187.737 190.211 160 160" enable-background="new 187.737 190.211 160 160"
	 xml:space="preserve">
<rect x="165.658" y="169.346" display="none" fill="#A35454" stroke="#FFFFFF" stroke-width="2" width="251" height="231"/>
<g id="Layer_1_1_">
	<polygon fill="none" stroke="#FFFFFF" stroke-width="3" points="216.822,293.845 216.822,281.116 222.169,281.116 222.169,315.769 
		256.832,315.769 256.832,321.054 244.103,321.054 244.103,329.178 291.351,329.178 291.351,321.054 278.624,321.054 
		278.624,315.769 313.353,315.769 313.353,281.106 318.652,281.106 318.652,293.835 326.776,293.835 326.776,246.587 
		318.652,246.587 318.652,259.315 313.353,259.315 313.353,224.586 278.633,224.586 278.633,219.368 291.362,219.368 
		291.362,211.244 244.113,211.244 244.113,219.368 256.841,219.368 256.841,224.586 222.169,224.586 222.169,259.325 
		216.822,259.325 216.822,246.597 208.698,246.597 208.698,293.845 	"/>
	<polygon fill="none" points="215.166,292.189 215.166,279.46 223.826,279.46 223.826,314.113 258.488,314.113 258.488,322.71 
		245.76,322.71 245.76,327.522 289.695,327.522 289.695,322.71 276.967,322.71 276.967,314.113 311.698,314.113 311.698,279.45 
		320.309,279.45 320.309,292.179 325.12,292.179 325.12,248.243 320.309,248.243 320.309,260.972 311.698,260.972 311.698,226.241 
		276.977,226.241 276.977,217.712 289.706,217.712 289.706,212.9 245.769,212.9 245.769,217.712 258.498,217.712 258.498,226.241 
		223.826,226.242 223.826,260.981 215.166,260.981 215.166,248.253 210.355,248.253 210.355,292.189 	"/>
	<circle fill="none" stroke="#FFFFFF" cx="267.737" cy="270.211" r="42.778"/>
	<circle fill="none" stroke="#FFFFFF" stroke-width="2" cx="267.737" cy="270.21" r="32.767"/>
	<circle fill="none" stroke="#FFFFFF" stroke-width="2" cx="267.737" cy="270.211" r="41.477"/>
	<circle fill="none" stroke="#FFFFFF" stroke-width="3" cx="267.737" cy="270.211" r="26.965"/>
</g>
<g id="Layer_5">
	<path fill="none" stroke="#FFFFFF" d="M267.682,311.578c0,0.025,0,0.05,0,0.068c0.006-0.012,0.013-0.022,0.018-0.035
		c0.006,0.012,0.013,0.022,0.018,0.033c0-0.018,0-0.041,0-0.064c2.205-4.343,6.911-4.596,6.385-9.019
		c-4.767,0.151-5.355,1.212-6.4,1.752c-1.048-0.539-1.633-1.603-6.405-1.755C260.77,306.982,265.476,307.234,267.682,311.578z"/>
	<path fill="none" stroke="#FFFFFF" d="M226.418,270.184c-0.026,0-0.05,0-0.068,0c0.012,0.006,0.021,0.012,0.033,0.018
		c-0.011,0.006-0.021,0.013-0.032,0.018c0.019,0,0.041,0,0.065,0c4.343,2.207,4.595,6.912,9.02,6.386
		c-0.153-4.768-1.214-5.356-1.754-6.401c0.539-1.047,1.603-1.633,1.755-6.405C231.013,263.271,230.761,267.978,226.418,270.184z"/>
	<path fill="none" stroke="#FFFFFF" d="M267.715,228.845c0-0.026,0-0.05,0-0.069c-0.005,0.012-0.012,0.023-0.018,0.035
		c-0.006-0.011-0.012-0.021-0.017-0.032c0,0.018,0,0.041,0,0.065c-2.206,4.342-6.912,4.595-6.386,9.019
		c4.767-0.152,5.356-1.213,6.401-1.753c1.047,0.54,1.632,1.603,6.404,1.755C274.627,233.439,269.921,233.188,267.715,228.845z"/>
	<path fill="none" stroke="#FFFFFF" d="M309.055,270.219c0.025,0,0.05,0,0.068,0c-0.012-0.006-0.022-0.013-0.034-0.018
		c0.012-0.006,0.021-0.012,0.032-0.018c-0.018,0-0.041,0-0.064,0c-4.343-2.207-4.596-6.912-9.021-6.386
		c0.154,4.767,1.215,5.356,1.754,6.401c-0.539,1.048-1.603,1.632-1.755,6.404C304.459,277.131,304.711,272.425,309.055,270.219z"/>
	<path fill="none" stroke="#FFFFFF" d="M305.79,285.958c0.024,0.011,0.048,0.02,0.063,0.026c-0.009-0.01-0.016-0.021-0.024-0.03
		c0.013-0.001,0.023-0.002,0.036-0.004c-0.016-0.007-0.038-0.015-0.061-0.024c-3.183-3.688-1.632-8.138-5.925-9.327
		c-1.666,4.468-0.908,5.416-0.805,6.588c-0.896,0.765-2.102,0.903-4.053,5.262C298.917,290.612,300.935,286.354,305.79,285.958z"/>
	<path fill="none" stroke="#FFFFFF" d="M296.876,299.393c0.018,0.019,0.035,0.036,0.049,0.05c-0.004-0.013-0.007-0.025-0.012-0.038
		c0.013,0.004,0.023,0.007,0.035,0.012c-0.013-0.014-0.028-0.03-0.046-0.046c-1.513-4.63,1.635-8.138-1.866-10.893
		c-3.263,3.479-2.929,4.646-3.285,5.767c-1.122,0.36-2.287,0.022-5.768,3.29C288.741,301.034,292.246,297.884,296.876,299.393z"/>
	<path fill="none" stroke="#FFFFFF" d="M283.5,308.332c0.011,0.022,0.02,0.044,0.027,0.062c0-0.014,0.002-0.024,0.003-0.038
		c0.01,0.008,0.019,0.015,0.028,0.022c-0.007-0.016-0.016-0.037-0.026-0.06c0.292-4.862,4.509-6.969,2.263-10.816
		c-4.311,2.04-4.428,3.247-5.172,4.159c-1.176-0.078-2.136-0.819-6.574,0.942C275.329,306.87,279.746,305.228,283.5,308.332z"/>
	<path fill="none" stroke="#FFFFFF" d="M229.413,285.933c-0.024,0.01-0.047,0.02-0.064,0.026c0.009-0.011,0.017-0.021,0.025-0.029
		c-0.013-0.002-0.024-0.004-0.037-0.004c0.018-0.008,0.038-0.016,0.061-0.025c3.183-3.688,1.632-8.137,5.925-9.328
		c1.666,4.47,0.908,5.416,0.805,6.589c0.896,0.765,2.102,0.902,4.052,5.262C236.284,290.587,234.267,286.328,229.413,285.933z"/>
	<path fill="none" stroke="#FFFFFF" d="M238.326,299.368c-0.019,0.018-0.036,0.034-0.049,0.048c0.004-0.013,0.007-0.025,0.012-0.037
		c-0.012,0.004-0.023,0.007-0.036,0.011c0.013-0.013,0.029-0.029,0.047-0.047c1.513-4.629-1.636-8.136,1.866-10.891
		c3.262,3.479,2.928,4.646,3.284,5.767c1.122,0.359,2.288,0.022,5.769,3.29C246.461,301.009,242.957,297.858,238.326,299.368z"/>
	<path fill="none" stroke="#FFFFFF" d="M251.703,308.306c-0.011,0.024-0.02,0.046-0.027,0.063c-0.001-0.014-0.003-0.026-0.003-0.039
		c-0.01,0.008-0.019,0.015-0.028,0.022c0.007-0.016,0.016-0.036,0.025-0.06c-0.293-4.861-4.508-6.969-2.263-10.816
		c4.312,2.04,4.429,3.246,5.173,4.158c1.176-0.077,2.136-0.818,6.574,0.943C259.873,306.846,255.457,305.201,251.703,308.306z"/>
	<path fill="none" stroke="#FFFFFF" d="M229.638,254.467c-0.023-0.01-0.046-0.02-0.063-0.027c0.009,0.01,0.017,0.021,0.024,0.03
		c-0.012,0.001-0.023,0.003-0.036,0.004c0.017,0.007,0.038,0.015,0.06,0.024c3.184,3.687,1.633,8.137,5.926,9.328
		c1.666-4.469,0.908-5.416,0.805-6.588c0.896-0.765,2.102-0.903,4.052-5.262C236.511,249.813,234.494,254.072,229.638,254.467z"/>
	<path fill="none" stroke="#FFFFFF" d="M238.552,241.032c-0.019-0.019-0.035-0.035-0.049-0.049c0.005,0.013,0.008,0.024,0.011,0.037
		c-0.011-0.003-0.022-0.007-0.034-0.011c0.013,0.013,0.029,0.029,0.046,0.046c1.513,4.629-1.636,8.137,1.866,10.892
		c3.262-3.479,2.928-4.646,3.285-5.767c1.121-0.36,2.287-0.022,5.769-3.29C246.688,239.391,243.183,242.541,238.552,241.032z"/>
	<path fill="none" stroke="#FFFFFF" d="M251.929,232.094c-0.01-0.024-0.02-0.046-0.027-0.064c-0.001,0.014-0.002,0.026-0.003,0.039
		c-0.01-0.008-0.02-0.015-0.028-0.022c0.007,0.016,0.017,0.037,0.025,0.059c-0.292,4.863-4.508,6.969-2.262,10.817
		c4.311-2.039,4.429-3.247,5.172-4.159c1.176,0.077,2.136,0.819,6.574-0.943C260.1,233.554,255.683,235.198,251.929,232.094z"/>
	<path fill="none" stroke="#FFFFFF" d="M305.797,254.505c0.024-0.01,0.046-0.019,0.064-0.026c-0.01,0.01-0.017,0.02-0.024,0.03
		c0.012,0.001,0.022,0.002,0.036,0.003c-0.018,0.006-0.038,0.015-0.061,0.025c-3.183,3.687-1.632,8.137-5.926,9.328
		c-1.665-4.47-0.907-5.417-0.804-6.589c-0.896-0.765-2.104-0.903-4.052-5.262C298.925,249.852,300.943,254.11,305.797,254.505z"/>
	<path fill="none" stroke="#FFFFFF" d="M296.884,241.07c0.019-0.018,0.036-0.036,0.049-0.049c-0.005,0.013-0.007,0.025-0.012,0.037
		c0.012-0.004,0.023-0.006,0.035-0.011c-0.014,0.013-0.029,0.029-0.046,0.046c-1.513,4.63,1.634,8.137-1.867,10.892
		c-3.261-3.479-2.928-4.646-3.284-5.767c-1.121-0.36-2.287-0.022-5.77-3.29C288.749,239.429,292.253,242.58,296.884,241.07z"/>
	<path fill="none" stroke="#FFFFFF" d="M283.507,232.132c0.01-0.023,0.02-0.045,0.027-0.063c0.001,0.013,0.002,0.026,0.002,0.039
		c0.011-0.008,0.02-0.015,0.029-0.023c-0.008,0.017-0.017,0.038-0.026,0.06c0.294,4.862,4.509,6.968,2.264,10.816
		c-4.312-2.039-4.43-3.247-5.174-4.159c-1.174,0.077-2.134,0.819-6.572-0.943C275.336,233.593,279.753,235.236,283.507,232.132z"/>
	<path fill="none" stroke="#FFFFFF" d="M267.695,302.696c0,0.021,0,0.042,0,0.059c0.01-0.011,0.02-0.02,0.029-0.03
		c0.009,0.01,0.019,0.019,0.027,0.028c0-0.015,0-0.035,0-0.055c3.508-3.603,10.931-1.941,10.155-7.48
		c-2.196,0.766-5.531,1.514-7.87,1.878c-0.844,0.595-1.572,0.441-2.319,1.208c-0.786-0.767-1.782-0.767-2.166-1.17
		c-1.399-0.191-3.719-0.345-8.013-1.919C257.443,301.062,264.187,299.094,267.695,302.696z"/>
	<path fill="none" stroke="#FFFFFF" d="M267.731,237.658c0-0.021,0-0.042,0-0.058c-0.01,0.01-0.02,0.019-0.028,0.029
		c-0.01-0.009-0.02-0.018-0.027-0.027c0,0.015,0,0.034,0,0.054c-3.509,3.602-10.932,1.941-10.157,7.481
		c2.197-0.767,5.532-1.515,7.871-1.878c0.843-0.594,1.571-0.441,2.319-1.208c0.785,0.767,1.782,0.767,2.166,1.169
		c1.398,0.191,3.719,0.345,8.013,1.918C277.983,239.291,271.239,241.26,267.731,237.658z"/>
	<path fill="none" stroke="#FFFFFF" d="M235.131,270.164c-0.021,0-0.041,0-0.058,0c0.01,0.01,0.02,0.02,0.029,0.029
		c-0.009,0.008-0.018,0.018-0.027,0.027c0.016,0,0.034,0,0.055,0c3.602,3.508,1.941,10.931,7.48,10.155
		c-0.766-2.196-1.514-5.531-1.878-7.87c-0.595-0.845-0.44-1.572-1.208-2.32c0.768-0.785,0.768-1.781,1.17-2.166
		c0.191-1.398,0.345-3.719,1.919-8.012C236.765,259.912,238.735,266.655,235.131,270.164z"/>
	<path fill="none" stroke="#FFFFFF" d="M300.27,270.229c0.021,0,0.042,0,0.058,0c-0.01-0.01-0.02-0.02-0.028-0.029
		c0.009-0.009,0.018-0.02,0.026-0.027c-0.014,0-0.034,0-0.053,0c-3.604-3.508-1.941-10.932-7.482-10.156
		c0.767,2.196,1.515,5.531,1.879,7.87c0.594,0.844,0.44,1.572,1.207,2.319c-0.767,0.786-0.767,1.783-1.168,2.166
		c-0.191,1.399-0.346,3.72-1.92,8.013C298.637,280.48,296.668,273.736,300.27,270.229z"/>
	<path fill="none" stroke="#FFFFFF" d="M290.65,293.254c0.016,0.015,0.03,0.029,0.041,0.04c0-0.014,0-0.027,0-0.04
		c0.013,0,0.026-0.001,0.039-0.001c-0.012-0.01-0.024-0.023-0.039-0.038c-0.085-5.027,6.322-9.125,1.845-12.479
		c-1.003,2.099-2.821,4.993-4.211,6.91c-0.173,1.017-0.795,1.426-0.776,2.496c-1.098,0.018-1.8,0.726-2.356,0.714
		c-1.121,0.858-2.864,2.396-7.007,4.336C282.269,299.38,285.623,293.206,290.65,293.254z"/>
	<path fill="none" stroke="#FFFFFF" d="M244.767,293.18c-0.015,0.016-0.029,0.028-0.04,0.04c0-0.014-0.001-0.027-0.001-0.041
		c-0.012,0.001-0.024-0.001-0.038,0c0.011-0.01,0.024-0.024,0.038-0.038c0.086-5.028-6.321-9.126-1.844-12.479
		c1.003,2.099,2.822,4.993,4.211,6.909c0.172,1.018,0.795,1.427,0.777,2.497c1.098,0.018,1.8,0.725,2.355,0.714
		c1.121,0.858,2.864,2.396,7.006,4.335C253.149,299.305,249.795,293.132,244.767,293.18z"/>
	<path fill="none" stroke="#FFFFFF" d="M244.72,247.149c-0.016-0.016-0.029-0.03-0.04-0.041c0,0.013-0.001,0.027-0.001,0.041
		c-0.013,0-0.025,0-0.038,0c0.01,0.011,0.023,0.024,0.037,0.039c0.014,5.029-6.452,9.034-2.023,12.452
		c1.034-2.085,2.894-4.953,4.311-6.849c0.187-1.014,0.814-1.415,0.812-2.485c1.098-0.002,1.81-0.7,2.365-0.681
		c1.135-0.842,2.898-2.354,7.067-4.234C253.188,241.144,249.747,247.269,244.72,247.149z"/>
	<path fill="none" stroke="#FFFFFF" d="M290.67,247.191c0.016-0.015,0.03-0.029,0.041-0.04c0,0.014,0.001,0.027,0.001,0.041
		c0.012,0,0.025,0,0.037,0c-0.011,0.011-0.023,0.024-0.037,0.038c-0.086,5.027,6.321,9.126,1.845,12.479
		c-1.004-2.099-2.822-4.993-4.212-6.91c-0.173-1.017-0.794-1.426-0.776-2.497c-1.098-0.018-1.801-0.725-2.355-0.714
		c-1.123-0.858-2.865-2.396-7.007-4.335C282.291,241.065,285.643,247.24,290.67,247.191z"/>
</g>
<g id="Layer_2" display="none">
</g>
<g id="Layer_3">
	<polygon fill="none" stroke="#FFFFFF" points="293.521,263.491 267.737,296.911 241.953,263.491 	"/>
	<polygon fill="none" stroke="#FFFFFF" points="282.063,250.15 267.739,273.417 253.411,250.15 	"/>
	<polygon fill="none" stroke="#FFFFFF" points="287.575,256.772 267.737,286.917 247.899,256.772 	"/>
	<polygon fill="none" stroke="#FFFFFF" points="241.953,276.931 267.737,243.511 293.521,276.931 	"/>
	<polygon fill="none" stroke="#FFFFFF" points="253.411,290.272 267.737,266.923 282.063,290.272 	"/>
	<polygon fill="none" stroke="#FFFFFF" points="247.899,283.649 267.737,253.505 287.575,283.649 	"/>
</g>
<g id="Layer_4">
	<polygon fill="none" stroke="#FFFFFF" points="259.203,273.579 267.738,260.065 276.271,273.579 	"/>
	<polygon fill="none" stroke="#FFFFFF" points="271.806,270.254 267.738,276.78 263.716,270.254 	"/>
	<polygon fill="none" stroke="#FFFFFF" points="276.271,266.843 267.738,280.356 259.203,266.843 	"/>
	<circle fill="none" stroke="#FFFFFF" stroke-miterlimit="10" cx="267.738" cy="271.424" r="0.347"/>
</g>
</svg>
