<?xml version="1.0" encoding="utf-8"?>
<!-- Generator: Adobe Illustrator 13.0.0, SVG Export Plug-In . SVG Version: 6.00 Build 14576)  -->
<!DOCTYPE svg PUBLIC "-//W3C//DTD SVG 1.1//EN" "http://www.w3.org/Graphics/SVG/1.1/DTD/svg11.dtd">
<svg version="1.1" xmlns="http://www.w3.org/2000/svg" xmlns:xlink="http://www.w3.org/1999/xlink" x="0px" y="0px"
	 width="516.316px" height="515.691px" viewBox="0 0 516.316 515.691" enable-background="new 0 0 516.316 515.691"
	 xml:space="preserve">
<g id="Layer_1">
	<polygon fill="none" stroke="#000000" stroke-width="3" points="36.817,360.587 36.817,305.254 60.062,305.254 60.062,455.9 
		210.75,455.9 210.75,478.875 155.416,478.875 155.416,514.191 360.816,514.191 360.816,478.875 305.483,478.875 305.483,455.9 
		456.462,455.9 456.462,305.213 479.499,305.213 479.499,360.546 514.816,360.546 514.816,155.146 479.499,155.146 479.499,210.479 
		456.462,210.479 456.462,59.5 305.524,59.5 305.524,36.816 360.858,36.816 360.858,1.5 155.458,1.5 155.458,36.816 210.792,36.816 
		210.792,59.5 60.062,59.5 60.062,210.521 36.817,210.521 36.817,155.187 1.5,155.187 1.5,360.587 	"/>
	<polygon fill="none" stroke="#000000" stroke-width="5" points="29.617,353.388 29.617,298.054 67.262,298.054 67.262,448.7 
		217.95,448.7 217.95,486.075 162.616,486.075 162.616,506.991 353.616,506.991 353.616,486.075 298.282,486.075 298.282,448.7 
		449.263,448.7 449.263,298.013 486.7,298.013 486.7,353.347 507.616,353.347 507.616,162.346 486.7,162.346 486.7,217.68 
		449.263,217.68 449.263,66.7 298.325,66.7 298.325,29.617 353.658,29.617 353.658,8.7 162.658,8.7 162.658,29.617 217.992,29.617 
		217.992,66.7 67.262,66.7 67.262,217.721 29.617,217.721 29.617,162.387 8.7,162.387 8.7,353.388 	"/>
	<circle fill="none" stroke="#000000" stroke-width="5" cx="258.158" cy="257.846" r="185.969"/>
	<circle fill="none" stroke="#000000" stroke-width="3" cx="258.158" cy="257.845" r="142.448"/>
	<circle fill="none" stroke="#000000" stroke-width="2" cx="258.158" cy="257.846" r="180.312"/>
	<circle fill="none" stroke="#000000" stroke-width="3" cx="258.158" cy="257.846" r="117.224"/>
</g>
<g id="Layer_5">
	<path fill="none" stroke="#000000" stroke-width="2" d="M257.946,437.61c0,0.114,0,0.219,0,0.301
		c0.026-0.052,0.054-0.099,0.08-0.15c0.024,0.048,0.051,0.093,0.075,0.141c0-0.076,0-0.177,0-0.281
		c9.589-18.88,30.047-19.978,27.759-39.209c-20.722,0.662-23.284,5.273-27.828,7.621c-4.553-2.345-7.097-6.967-27.845-7.631
		C227.9,417.635,248.358,418.731,257.946,437.61z"/>
	<path fill="none" stroke="#000000" stroke-width="2" d="M78.563,257.659c-0.113,0-0.217,0-0.299,0
		c0.051,0.025,0.099,0.054,0.149,0.079c-0.048,0.024-0.092,0.051-0.141,0.075c0.077,0,0.177,0,0.282,0
		c18.879,9.589,19.976,30.046,39.209,27.759c-0.663-20.722-5.274-23.285-7.622-27.828c2.345-4.553,6.967-7.097,7.63-27.845
		C98.54,227.612,97.442,248.07,78.563,257.659z"/>
	<path fill="none" stroke="#000000" stroke-width="2" d="M258.095,77.948c0-0.113,0-0.218,0-0.3
		c-0.025,0.051-0.054,0.099-0.079,0.15c-0.024-0.048-0.051-0.093-0.075-0.141c0,0.077,0,0.177,0,0.282
		c-9.589,18.879-30.046,19.977-27.759,39.209c20.722-0.663,23.285-5.274,27.828-7.622c4.554,2.345,7.097,6.967,27.845,7.63
		C288.142,97.924,267.684,96.827,258.095,77.948z"/>
	<path fill="none" stroke="#000000" stroke-width="2" d="M437.806,257.812c0.113,0,0.218,0,0.3,0
		c-0.052-0.025-0.099-0.054-0.15-0.079c0.049-0.024,0.093-0.051,0.142-0.075c-0.077,0-0.178,0-0.282,0
		c-18.88-9.589-19.977-30.046-39.209-27.76c0.662,20.723,5.274,23.286,7.621,27.829c-2.345,4.553-6.967,7.097-7.63,27.844
		C417.83,287.858,418.926,267.401,437.806,257.812z"/>
	<path fill="none" stroke="#000000" stroke-width="2" d="M423.612,326.236c0.104,0.043,0.201,0.083,0.276,0.114
		c-0.037-0.043-0.07-0.088-0.108-0.131c0.055-0.004,0.105-0.012,0.159-0.016c-0.071-0.029-0.164-0.067-0.261-0.107
		c-13.836-16.029-7.097-35.375-25.761-40.55c-7.242,19.428-3.946,23.547-3.496,28.641c-3.896,3.324-9.138,3.927-17.615,22.874
		C393.737,346.468,402.507,327.953,423.612,326.236z"/>
	<path fill="none" stroke="#000000" stroke-width="2" d="M384.863,384.641c0.08,0.08,0.154,0.153,0.213,0.212
		c-0.02-0.055-0.032-0.107-0.051-0.162c0.052,0.017,0.102,0.029,0.153,0.047c-0.056-0.055-0.126-0.125-0.2-0.199
		c-6.577-20.128,7.107-35.374-8.114-47.352c-14.179,15.127-12.728,20.2-14.278,25.072c-4.877,1.564-9.944,0.096-25.079,14.303
		C349.495,391.774,364.731,378.079,384.863,384.641z"/>
	<path fill="none" stroke="#000000" stroke-width="2" d="M326.708,423.496c0.045,0.104,0.087,0.2,0.119,0.275
		c0.003-0.058,0.011-0.111,0.014-0.169c0.041,0.035,0.084,0.064,0.125,0.1c-0.031-0.07-0.07-0.162-0.113-0.259
		c1.271-21.137,19.598-30.295,9.836-47.022c-18.741,8.865-19.254,14.116-22.486,18.079c-5.109-0.337-9.284-3.562-28.578,4.098
		C291.19,417.147,310.391,410.003,326.708,423.496z"/>
	<path fill="none" stroke="#000000" stroke-width="2" d="M91.578,326.125c-0.105,0.043-0.202,0.083-0.278,0.113
		c0.038-0.043,0.071-0.087,0.109-0.13c-0.054-0.004-0.105-0.012-0.159-0.016c0.072-0.029,0.165-0.067,0.261-0.107
		c13.836-16.029,7.097-35.376,25.76-40.55c7.242,19.427,3.946,23.546,3.496,28.64c3.896,3.325,9.137,3.928,17.615,22.875
		C121.453,346.356,112.683,327.842,91.578,326.125z"/>
	<path fill="none" stroke="#000000" stroke-width="2" d="M130.326,384.529c-0.08,0.079-0.154,0.153-0.212,0.212
		c0.018-0.055,0.032-0.107,0.05-0.162c-0.051,0.017-0.102,0.029-0.153,0.046c0.055-0.054,0.125-0.125,0.2-0.199
		c6.577-20.127-7.107-35.374,8.114-47.351c14.179,15.127,12.729,20.2,14.279,25.072c4.877,1.563,9.945,0.096,25.079,14.303
		C165.695,391.663,150.458,377.967,130.326,384.529z"/>
	<path fill="none" stroke="#000000" stroke-width="2" d="M188.481,423.385c-0.045,0.104-0.087,0.2-0.12,0.275
		c-0.003-0.058-0.01-0.112-0.013-0.169c-0.042,0.034-0.083,0.064-0.125,0.1c0.031-0.071,0.07-0.162,0.112-0.259
		c-1.271-21.137-19.597-30.295-9.835-47.023c18.742,8.866,19.255,14.116,22.486,18.079c5.111-0.336,9.286-3.561,28.579,4.098
		C223.999,417.037,204.799,409.891,188.481,423.385z"/>
	<path fill="none" stroke="#000000" stroke-width="2" d="M92.563,189.333c-0.104-0.043-0.201-0.083-0.277-0.114
		c0.038,0.043,0.071,0.087,0.108,0.13c-0.054,0.004-0.105,0.012-0.159,0.016c0.072,0.029,0.164,0.067,0.261,0.107
		c13.835,16.03,7.096,35.376,25.76,40.55c7.242-19.427,3.946-23.546,3.496-28.641c3.896-3.324,9.137-3.926,17.615-22.874
		C122.438,169.102,113.668,187.617,92.563,189.333z"/>
	<path fill="none" stroke="#000000" stroke-width="2" d="M131.312,130.929c-0.08-0.08-0.154-0.153-0.212-0.211
		c0.019,0.054,0.032,0.107,0.05,0.162c-0.051-0.017-0.102-0.03-0.153-0.047c0.055,0.055,0.125,0.126,0.2,0.2
		c6.577,20.127-7.107,35.374,8.114,47.351c14.179-15.126,12.728-20.199,14.279-25.072c4.877-1.563,9.945-0.096,25.079-14.303
		C166.68,123.796,151.444,137.491,131.312,130.929z"/>
	<path fill="none" stroke="#000000" stroke-width="2" d="M189.467,92.073c-0.045-0.104-0.086-0.2-0.119-0.275
		c-0.003,0.057-0.01,0.112-0.013,0.169c-0.042-0.035-0.083-0.065-0.125-0.1c0.031,0.071,0.071,0.163,0.113,0.259
		c-1.271,21.137-19.597,30.295-9.836,47.023c18.742-8.865,19.255-14.116,22.486-18.079c5.11,0.336,9.285,3.562,28.579-4.098
		C224.985,98.422,205.785,105.568,189.467,92.073z"/>
	<path fill="none" stroke="#000000" stroke-width="2" d="M423.646,189.5c0.105-0.043,0.201-0.083,0.277-0.114
		c-0.038,0.043-0.07,0.087-0.108,0.13c0.054,0.004,0.105,0.012,0.159,0.016c-0.072,0.03-0.164,0.067-0.262,0.107
		c-13.835,16.029-7.096,35.376-25.76,40.55c-7.242-19.427-3.946-23.546-3.496-28.64c-3.896-3.325-9.137-3.927-17.615-22.875
		C393.771,169.269,402.541,187.783,423.646,189.5z"/>
	<path fill="none" stroke="#000000" stroke-width="2" d="M384.897,131.096c0.08-0.08,0.153-0.154,0.212-0.212
		c-0.019,0.054-0.031,0.107-0.05,0.162c0.052-0.017,0.102-0.03,0.152-0.047c-0.055,0.055-0.125,0.125-0.199,0.199
		c-6.577,20.127,7.107,35.374-8.114,47.351c-14.179-15.126-12.728-20.199-14.278-25.072c-4.877-1.563-9.944-0.096-25.079-14.303
		C349.529,123.962,364.766,137.658,384.897,131.096z"/>
	<path fill="none" stroke="#000000" stroke-width="2" d="M326.743,92.24c0.045-0.104,0.086-0.2,0.119-0.275
		c0.002,0.057,0.01,0.112,0.013,0.169c0.042-0.034,0.083-0.064,0.125-0.1c-0.031,0.071-0.071,0.163-0.112,0.259
		c1.271,21.136,19.597,30.294,9.835,47.022c-18.741-8.865-19.255-14.116-22.485-18.079c-5.111,0.336-9.286,3.562-28.579-4.098
		C291.225,98.588,310.425,105.734,326.743,92.24z"/>
	<path fill="none" stroke="#000000" stroke-width="2" d="M258.004,399.003c0,0.094,0,0.18,0,0.248
		c0.041-0.042,0.085-0.082,0.126-0.124c0.039,0.04,0.081,0.077,0.119,0.117c0-0.064,0-0.147,0-0.234
		c15.252-15.661,47.52-8.44,44.152-32.525c-9.55,3.335-24.05,6.585-34.217,8.167c-3.666,2.584-6.833,1.918-10.083,5.25
		c-3.417-3.332-7.75-3.332-9.417-5.082c-6.083-0.834-16.167-1.5-34.834-8.342C213.435,391.901,242.752,383.342,258.004,399.003z"/>
	<path fill="none" stroke="#000000" stroke-width="2" d="M258.16,116.261c0-0.094,0-0.18,0-0.249
		c-0.041,0.042-0.085,0.082-0.126,0.124c-0.039-0.04-0.081-0.077-0.119-0.117c0,0.064,0,0.147,0,0.234
		c-15.251,15.661-47.519,8.441-44.153,32.525c9.55-3.334,24.05-6.584,34.217-8.167c3.667-2.583,6.833-1.917,10.083-5.25
		c3.417,3.333,7.75,3.333,9.417,5.083c6.082,0.833,16.166,1.5,34.834,8.341C302.729,123.362,273.411,131.922,258.16,116.261z"/>
	<path fill="none" stroke="#000000" stroke-width="2" d="M116.442,257.573c-0.094,0-0.18,0-0.249,0
		c0.042,0.041,0.082,0.085,0.125,0.126c-0.04,0.039-0.077,0.081-0.117,0.119c0.064,0,0.147,0,0.234,0
		c15.661,15.251,8.44,47.52,32.525,44.153c-3.334-9.55-6.584-24.05-8.167-34.217c-2.583-3.667-1.917-6.833-5.25-10.083
		c3.333-3.417,3.333-7.75,5.083-9.417c0.833-6.083,1.5-16.167,8.341-34.834C123.543,213.004,132.104,242.321,116.442,257.573z"/>
	<path fill="none" stroke="#000000" stroke-width="2" d="M399.618,257.852c0.094,0,0.181,0,0.248,0
		c-0.042-0.041-0.081-0.085-0.123-0.126c0.039-0.039,0.076-0.081,0.116-0.119c-0.063,0-0.147,0-0.233,0
		c-15.662-15.251-8.441-47.52-32.525-44.153c3.334,9.55,6.584,24.05,8.167,34.217c2.584,3.667,1.917,6.833,5.25,10.083
		c-3.333,3.417-3.333,7.75-5.083,9.417c-0.833,6.083-1.5,16.167-8.342,34.834C392.518,302.421,383.957,273.103,399.618,257.852z"/>
	<path fill="none" stroke="#000000" stroke-width="2" d="M357.798,357.952c0.066,0.065,0.128,0.127,0.176,0.175
		c-0.002-0.06,0.003-0.118,0.001-0.177c0.056,0,0.111-0.004,0.167-0.002c-0.045-0.046-0.104-0.104-0.166-0.165
		c-0.372-21.857,27.483-39.674,8.018-54.25c-4.361,9.127-12.268,21.708-18.307,30.039c-0.749,4.422-3.453,6.2-3.377,10.854
		c-4.772,0.077-7.825,3.153-10.241,3.103c-4.876,3.731-12.453,10.418-30.459,18.849
		C321.362,384.583,335.938,357.744,357.798,357.952z"/>
	<path fill="none" stroke="#000000" stroke-width="2" d="M158.331,357.629c-0.066,0.065-0.128,0.126-0.176,0.175
		c0.001-0.059-0.002-0.119-0.001-0.178c-0.055,0.001-0.111-0.003-0.167-0.002c0.045-0.045,0.104-0.104,0.166-0.165
		c0.372-21.857-27.483-39.673-8.018-54.25c4.361,9.128,12.269,21.708,18.307,30.04c0.75,4.422,3.454,6.2,3.377,10.854
		c4.773,0.077,7.825,3.152,10.241,3.103c4.877,3.73,12.453,10.418,30.459,18.848C194.767,384.259,180.19,357.421,158.331,357.629z"
		/>
	<path fill="none" stroke="#000000" stroke-width="2" d="M158.125,157.521c-0.065-0.067-0.126-0.129-0.174-0.178
		c0.001,0.059-0.004,0.119-0.003,0.177c-0.056-0.001-0.111,0.001-0.167,0c0.045,0.046,0.103,0.105,0.164,0.167
		c0.058,21.86-28.05,39.274-8.796,54.129c4.492-9.063,12.579-21.529,18.736-29.773c0.813-4.411,3.542-6.15,3.532-10.805
		c4.773-0.009,7.87-3.04,10.285-2.956c4.93-3.66,12.601-10.238,30.726-18.408C194.939,131.416,179.979,158.042,158.125,157.521z"/>
	<path fill="none" stroke="#000000" stroke-width="2" d="M357.886,157.707c0.066-0.066,0.128-0.127,0.177-0.175
		c-0.002,0.059,0.002,0.118,0.001,0.177c0.055-0.001,0.111,0.003,0.167,0.002c-0.046,0.045-0.104,0.104-0.167,0.165
		c-0.371,21.857,27.483,39.673,8.019,54.25c-4.361-9.127-12.269-21.708-18.308-30.039c-0.748-4.422-3.452-6.2-3.376-10.855
		c-4.772-0.077-7.826-3.152-10.242-3.103c-4.876-3.731-12.452-10.418-30.458-18.848C321.45,131.076,336.026,157.915,357.886,157.707
		z"/>
</g>
<g id="Layer_2">
</g>
<g id="Layer_3">
	<polygon fill="none" stroke="#000000" stroke-width="2" points="370.176,228.753 258.084,374.04 145.992,228.753 	"/>
	<polygon fill="none" stroke="#000000" stroke-width="2" points="320.362,170.753 258.091,271.901 195.805,170.753 	"/>
	<polygon fill="none" stroke="#000000" stroke-width="2" points="344.323,199.543 258.084,330.59 171.845,199.543 	"/>
	<polygon fill="none" stroke="#000000" stroke-width="2" points="145.992,287.176 258.084,141.89 370.176,287.176 	"/>
	<polygon fill="none" stroke="#000000" stroke-width="2" points="195.805,345.176 258.084,243.671 320.362,345.176 	"/>
	<polygon fill="none" stroke="#000000" stroke-width="2" points="171.845,316.386 258.084,185.339 344.323,316.386 	"/>
</g>
<g id="Layer_4">
	<polygon fill="none" stroke="#000000" stroke-width="2" points="220.984,272.479 258.084,213.73 295.183,272.479 	"/>
	<polygon fill="none" stroke="#000000" stroke-width="2" points="275.769,258.024 258.084,286.401 240.602,258.024 	"/>
	<polygon fill="none" stroke="#000000" stroke-width="2" points="295.183,243.195 258.084,301.944 220.984,243.195 	"/>
	<circle cx="258.084" cy="263.11" r="1.508"/>
</g>
</svg>
